<svg width="598" height="336" viewBox="0 0 598 336" fill="none" xmlns="http://www.w3.org/2000/svg">
<g filter="url(#filter0_d_9_54)">
<path d="M82.2113 262.488L0 332.262L69.7009 217.761H87.5729V233.863L58.9777 267.855L82.2113 262.488Z" fill="#1C1E22"/>
</g>
<g filter="url(#filter1_d_9_54)">
<path d="M532.022 267.855L503.427 233.863V217.761H521.299L591 332.262L508.789 262.488L532.022 267.855Z" fill="#1C1E22"/>
</g>
<g filter="url(#filter2_d_9_54)">
<path d="M87.5729 98.3988V114.5H69.7009L0 1.90735e-05L82.2113 69.7737L58.9777 64.4065L87.5729 98.3988Z" fill="#1C1E22"/>
</g>
<g filter="url(#filter3_d_9_54)">
<path d="M591 0L521.299 114.5H503.427V98.3988L532.022 64.4065L508.789 69.7737L591 0Z" fill="#1C1E22"/>
</g>
<g filter="url(#filter4_d_9_54)">
<path d="M94.4765 182.59L95.904 167.244H137.184L138.493 182.59H94.4765ZM116.247 145.95L104.588 172.835L105.54 177.237L95.1903 198.651H72.4682L116.247 110.142L160.144 198.651H137.303L127.31 178.07L128.024 172.954L116.247 145.95ZM214.054 143.927H234.039L213.102 170.575L235.229 198.651H215.243L203.823 182.709L192.64 198.651H171.94L194.425 170.575L173.13 143.927H193.83L203.823 158.322L214.054 143.927ZM247.152 123.347C247.152 120.491 248.183 118.191 250.245 116.447C252.308 114.623 254.766 113.71 257.621 113.71C260.556 113.71 263.014 114.623 264.997 116.447C267.059 118.191 268.09 120.491 268.09 123.347C268.09 126.202 267.059 128.541 264.997 130.365C263.014 132.19 260.556 133.102 257.621 133.102C254.766 133.102 252.308 132.19 250.245 130.365C248.183 128.541 247.152 126.202 247.152 123.347ZM248.937 143.927H266.306V198.651H248.937V143.927ZM283.837 171.289C283.837 165.499 285.185 160.463 287.882 156.181C290.578 151.898 294.306 148.567 299.064 146.188C303.823 143.808 309.176 142.619 315.124 142.619C321.073 142.619 326.386 143.808 331.066 146.188C335.824 148.567 339.552 151.898 342.248 156.181C345.024 160.463 346.412 165.499 346.412 171.289C346.412 176.999 345.024 181.996 342.248 186.278C339.552 190.561 335.824 193.892 331.066 196.271C326.386 198.651 321.073 199.84 315.124 199.84C309.176 199.84 303.823 198.651 299.064 196.271C294.306 193.892 290.578 190.561 287.882 186.278C285.185 181.996 283.837 176.999 283.837 171.289ZM302.276 171.289C302.276 174.144 302.871 176.603 304.061 178.665C305.25 180.647 306.797 182.194 308.7 183.304C310.604 184.415 312.745 184.97 315.124 184.97C317.424 184.97 319.526 184.415 321.429 183.304C323.412 182.194 324.959 180.647 326.069 178.665C327.259 176.603 327.853 174.144 327.853 171.289C327.853 168.434 327.259 165.975 326.069 163.913C324.959 161.851 323.412 160.265 321.429 159.155C319.526 158.044 317.424 157.489 315.124 157.489C312.745 157.489 310.604 158.044 308.7 159.155C306.797 160.265 305.25 161.851 304.061 163.913C302.871 165.975 302.276 168.434 302.276 171.289ZM446.68 163.437V198.651H428.597V165.341C428.597 162.01 428.042 159.511 426.932 157.846C425.901 156.101 424.156 155.229 421.697 155.229C420.111 155.229 418.684 155.625 417.415 156.418C416.225 157.132 415.273 158.243 414.559 159.749C413.925 161.256 413.608 163.12 413.608 165.341V198.651H395.525V165.341C395.525 162.01 394.97 159.511 393.86 157.846C392.829 156.101 391.084 155.229 388.625 155.229C387.039 155.229 385.612 155.625 384.343 156.418C383.153 157.132 382.201 158.243 381.488 159.749C380.853 161.256 380.536 163.12 380.536 165.341V198.651H363.167V143.927H380.536V152.017C382.043 149.082 384.105 146.782 386.722 145.117C389.418 143.451 392.63 142.619 396.358 142.619C400.641 142.619 404.051 143.412 406.589 144.998C409.127 146.505 410.951 148.725 412.061 151.66C414.044 148.805 416.502 146.584 419.437 144.998C422.371 143.412 425.702 142.619 429.43 142.619C433.713 142.619 437.083 143.451 439.542 145.117C442.08 146.703 443.904 149.043 445.014 152.136C446.124 155.229 446.68 158.996 446.68 163.437ZM480.621 181.52C480.621 182.947 480.978 184.177 481.692 185.208C482.406 186.159 483.358 186.913 484.547 187.468C485.737 187.944 487.045 188.182 488.473 188.182C490.535 188.182 492.439 187.746 494.183 186.873C495.928 186.001 497.356 184.692 498.466 182.947C499.576 181.203 500.131 179.061 500.131 176.523L502.035 183.661C502.035 187.151 501.083 190.125 499.18 192.583C497.276 194.963 494.818 196.787 491.804 198.056C488.79 199.245 485.539 199.84 482.049 199.84C478.559 199.84 475.308 199.206 472.294 197.937C469.36 196.589 466.98 194.606 465.156 191.989C463.411 189.371 462.539 186.199 462.539 182.471C462.539 177.237 464.403 173.113 468.13 170.099C471.858 167.006 477.132 165.46 483.952 165.46C487.283 165.46 490.258 165.777 492.875 166.411C495.571 167.046 497.871 167.839 499.775 168.791C501.678 169.742 503.106 170.734 504.057 171.765V179.735C502.154 178.308 499.933 177.237 497.395 176.523C494.937 175.73 492.32 175.334 489.544 175.334C487.402 175.334 485.697 175.572 484.428 176.047C483.159 176.523 482.208 177.237 481.573 178.189C480.939 179.061 480.621 180.172 480.621 181.52ZM472.651 160.701L466.584 148.686C469.677 147.179 473.404 145.751 477.766 144.403C482.128 143.055 486.887 142.381 492.042 142.381C496.88 142.381 501.202 143.095 505.009 144.522C508.816 145.87 511.83 147.853 514.05 150.47C516.271 153.087 517.381 156.299 517.381 160.106V198.651H500.131V164.151C500.131 162.803 499.894 161.653 499.418 160.701C499.021 159.67 498.387 158.798 497.514 158.084C496.642 157.37 495.532 156.855 494.183 156.537C492.914 156.22 491.447 156.062 489.782 156.062C487.323 156.062 484.904 156.339 482.525 156.894C480.225 157.449 478.203 158.124 476.458 158.917C474.713 159.63 473.444 160.225 472.651 160.701Z" fill="#1C1E22"/>
</g>
<defs>
<filter id="filter0_d_9_54" x="0" y="217.761" width="94.0788" height="118.218" filterUnits="userSpaceOnUse" color-interpolation-filters="sRGB">
<feFlood flood-opacity="0" result="BackgroundImageFix"/>
<feColorMatrix in="SourceAlpha" type="matrix" values="0 0 0 0 0 0 0 0 0 0 0 0 0 0 0 0 0 0 127 0" result="hardAlpha"/>
<feOffset dx="6.50583" dy="3.71762"/>
<feComposite in2="hardAlpha" operator="out"/>
<feColorMatrix type="matrix" values="0 0 0 0 0 0 0 0 0 0 0 0 0 0 0 0 0 0 0.25 0"/>
<feBlend mode="normal" in2="BackgroundImageFix" result="effect1_dropShadow_9_54"/>
<feBlend mode="normal" in="SourceGraphic" in2="effect1_dropShadow_9_54" result="shape"/>
</filter>
<filter id="filter1_d_9_54" x="503.427" y="217.761" width="94.0788" height="118.218" filterUnits="userSpaceOnUse" color-interpolation-filters="sRGB">
<feFlood flood-opacity="0" result="BackgroundImageFix"/>
<feColorMatrix in="SourceAlpha" type="matrix" values="0 0 0 0 0 0 0 0 0 0 0 0 0 0 0 0 0 0 127 0" result="hardAlpha"/>
<feOffset dx="6.50583" dy="3.71762"/>
<feComposite in2="hardAlpha" operator="out"/>
<feColorMatrix type="matrix" values="0 0 0 0 0 0 0 0 0 0 0 0 0 0 0 0 0 0 0.25 0"/>
<feBlend mode="normal" in2="BackgroundImageFix" result="effect1_dropShadow_9_54"/>
<feBlend mode="normal" in="SourceGraphic" in2="effect1_dropShadow_9_54" result="shape"/>
</filter>
<filter id="filter2_d_9_54" x="0" y="1.90735e-05" width="94.0788" height="118.218" filterUnits="userSpaceOnUse" color-interpolation-filters="sRGB">
<feFlood flood-opacity="0" result="BackgroundImageFix"/>
<feColorMatrix in="SourceAlpha" type="matrix" values="0 0 0 0 0 0 0 0 0 0 0 0 0 0 0 0 0 0 127 0" result="hardAlpha"/>
<feOffset dx="6.50583" dy="3.71762"/>
<feComposite in2="hardAlpha" operator="out"/>
<feColorMatrix type="matrix" values="0 0 0 0 0 0 0 0 0 0 0 0 0 0 0 0 0 0 0.25 0"/>
<feBlend mode="normal" in2="BackgroundImageFix" result="effect1_dropShadow_9_54"/>
<feBlend mode="normal" in="SourceGraphic" in2="effect1_dropShadow_9_54" result="shape"/>
</filter>
<filter id="filter3_d_9_54" x="503.427" y="0" width="94.0788" height="118.218" filterUnits="userSpaceOnUse" color-interpolation-filters="sRGB">
<feFlood flood-opacity="0" result="BackgroundImageFix"/>
<feColorMatrix in="SourceAlpha" type="matrix" values="0 0 0 0 0 0 0 0 0 0 0 0 0 0 0 0 0 0 127 0" result="hardAlpha"/>
<feOffset dx="6.50583" dy="3.71762"/>
<feComposite in2="hardAlpha" operator="out"/>
<feColorMatrix type="matrix" values="0 0 0 0 0 0 0 0 0 0 0 0 0 0 0 0 0 0 0.25 0"/>
<feBlend mode="normal" in2="BackgroundImageFix" result="effect1_dropShadow_9_54"/>
<feBlend mode="normal" in="SourceGraphic" in2="effect1_dropShadow_9_54" result="shape"/>
</filter>
<filter id="filter4_d_9_54" x="72.4683" y="110.142" width="451.419" height="93.4162" filterUnits="userSpaceOnUse" color-interpolation-filters="sRGB">
<feFlood flood-opacity="0" result="BackgroundImageFix"/>
<feColorMatrix in="SourceAlpha" type="matrix" values="0 0 0 0 0 0 0 0 0 0 0 0 0 0 0 0 0 0 127 0" result="hardAlpha"/>
<feOffset dx="6.50583" dy="3.71762"/>
<feComposite in2="hardAlpha" operator="out"/>
<feColorMatrix type="matrix" values="0 0 0 0 0 0 0 0 0 0 0 0 0 0 0 0 0 0 0.25 0"/>
<feBlend mode="normal" in2="BackgroundImageFix" result="effect1_dropShadow_9_54"/>
<feBlend mode="normal" in="SourceGraphic" in2="effect1_dropShadow_9_54" result="shape"/>
</filter>
</defs>
</svg>
